<?xml version="1.0" encoding="iso-8859-1"?>
<!-- Generator: Adobe Illustrator 19.0.0, SVG Export Plug-In . SVG Version: 6.00 Build 0)  -->
<svg version="1.1" id="Capa_1" xmlns="http://www.w3.org/2000/svg" xmlns:xlink="http://www.w3.org/1999/xlink" x="0px" y="0px"
	 viewBox="0 0 512.001 512.001" style="enable-background:new 0 0 512.001 512.001;" xml:space="preserve">
<path style="fill:#08469C;" d="M373.756,373.735c-5.7,6-15.299,6-20.998,0l-41.097-40.797c-6-6-6-15.6,0-21.297
	c5.7-6,15.299-6,21.297,0l40.798,41.097C379.753,358.437,379.753,368.036,373.756,373.735z"/>
<path style="fill:#063E8B;" d="M373.756,373.735c-5.7,6-15.299,6-20.998,0l-41.097-40.797c-6-6-6-15.6,0-21.297L373.756,373.735z"/>
<path style="fill:#0A4EAF;" d="M498.708,435.132L395.052,331.439c-5.7-6-15.299-6-21.297,0l-20.998,21.299l-21.299,20.997
	c-6,6-6,15.6,0,21.299l103.656,103.692c17.7,17.698,45.896,17.698,63.595,0C516.408,481.327,516.408,452.53,498.708,435.132z"/>
<path style="fill:#08469C;" d="M498.708,498.727c-17.7,17.698-45.896,17.698-63.595,0L331.457,395.035c-6-5.7-6-15.299,0-21.299
	l21.299-20.997L498.708,498.727z"/>
<path style="fill:#1689FC;" d="M332.659,57.258c-76.195-76.494-199.186-76.193-275.382,0c-76.494,76.195-76.193,199.186,0,275.38
	c76.195,76.495,199.186,76.195,275.382,0C409.153,256.445,408.852,133.454,332.659,57.258z"/>
<path style="fill:#136EF1;" d="M332.659,332.638c-76.195,76.195-199.186,76.495-275.382,0c-76.193-76.193-76.494-199.185,0-275.38
	L332.659,332.638z"/>
<path style="fill:#CAE8F9;" d="M194.968,29.961c-45.598,0-86.694,18.599-116.692,48.297C48.578,108.255,29.98,149.352,29.98,194.949
	c0,90.892,74.094,164.988,164.988,164.988c45.598,0,86.694-18.599,116.692-48.297c29.698-29.998,48.297-71.097,48.297-116.692
	C359.956,104.055,285.862,29.961,194.968,29.961z"/>
<path style="fill:#B7E0F6;" d="M29.98,194.949c0,90.892,74.094,164.988,164.988,164.988c45.598,0,86.694-18.599,116.692-48.297
	L78.276,78.258C48.578,108.255,29.98,149.351,29.98,194.949z"/>
<g>
</g>
<g>
</g>
<g>
</g>
<g>
</g>
<g>
</g>
<g>
</g>
<g>
</g>
<g>
</g>
<g>
</g>
<g>
</g>
<g>
</g>
<g>
</g>
<g>
</g>
<g>
</g>
<g>
</g>
</svg>
